<svg version="1.1" id="Layer_1" xmlns="http://www.w3.org/2000/svg" xmlns:xlink="http://www.w3.org/1999/xlink" x="0px" y="0px"
	 width="100%" viewBox="0 0 891 280" enable-background="new 0 0 891 280" xml:space="preserve">
<path fill="#0C1729" opacity="1.000000" stroke="none" 
	d="
M604.000000,281.000000 
	C402.666656,281.000000 201.833328,281.000000 1.000000,281.000000 
	C1.000000,187.666672 1.000000,94.333336 1.000000,1.000000 
	C298.000000,1.000000 595.000000,1.000000 892.000000,1.000000 
	C892.000000,94.333336 892.000000,187.666672 892.000000,281.000000 
	C796.166687,281.000000 700.333313,281.000000 604.000000,281.000000 
M57.509460,236.246506 
	C68.839951,236.242645 80.170441,236.241440 91.500931,236.234253 
	C106.888817,236.224472 115.114197,228.016693 115.238739,212.477722 
	C115.305511,204.146988 115.187149,195.814117 115.314163,187.484680 
	C115.498901,175.370087 108.650932,163.461533 93.201324,163.272156 
	C87.046532,163.196716 82.023758,160.625809 77.786209,156.222031 
	C71.576775,149.769043 69.402924,142.196075 72.318024,133.767242 
	C75.384109,124.901833 81.945328,119.306458 91.279701,118.156685 
	C100.898788,116.971840 108.741280,120.886154 113.278946,129.524231 
	C115.362518,133.490585 116.230911,138.262131 116.878532,142.779190 
	C118.021225,150.749359 122.101807,156.681320 129.244827,159.636948 
	C137.671616,163.123795 145.858490,161.997025 152.774658,155.284851 
	C158.127335,150.090027 160.584579,140.596283 157.708694,133.555344 
	C154.204575,124.976402 147.738541,120.024483 138.345306,119.325958 
	C123.985382,118.258102 117.276863,111.615623 115.157028,97.458794 
	C114.443954,92.696625 112.670929,87.730705 110.076439,83.698090 
	C106.232437,77.723335 99.881973,75.474152 92.762863,75.613564 
	C77.917137,75.904282 64.006889,56.415165 75.173141,40.441010 
	C77.168541,37.586441 79.941093,35.275120 82.429932,32.633224 
	C70.033669,32.633224 57.727070,31.818295 45.577759,32.851997 
	C32.211605,33.989235 23.975843,51.723850 32.332737,64.176331 
	C37.335415,71.630753 44.551861,73.748589 52.798149,74.662109 
	C66.172707,76.143753 74.821709,88.388840 72.123528,101.568130 
	C70.008636,111.898354 61.651649,118.703400 50.357288,119.292282 
	C38.958046,119.886620 29.285858,128.151947 29.166222,138.544479 
	C28.865129,164.699478 29.017944,190.860779 29.143768,217.018814 
	C29.170609,222.598663 32.044346,226.974915 35.945717,230.934998 
	C41.838070,236.916000 49.225452,236.183701 57.509460,236.246506 
M201.897354,47.766342 
	C198.477905,37.124779 191.744186,32.030827 180.446457,31.992495 
	C156.636032,31.911705 132.825089,31.977236 109.014420,32.018478 
	C107.837296,32.020519 106.660759,32.362011 104.861115,32.642513 
	C111.421555,37.796104 116.445892,43.251381 116.504257,51.173878 
	C116.608574,65.332489 126.293243,73.908356 139.822495,74.544296 
	C146.490936,74.857735 152.495895,77.650360 155.622116,83.529961 
	C158.259537,88.490250 159.565369,94.272354 160.807678,99.836479 
	C163.251053,110.780212 171.749451,118.223495 182.096634,117.892754 
	C192.851181,117.548988 201.929108,109.762123 202.356552,98.465935 
	C202.984924,81.860229 202.270676,65.203728 201.897354,47.766342 
M658.440979,208.925751 
	C663.283569,198.450012 665.625671,187.733765 662.020752,176.295578 
	C657.035583,160.478149 646.817444,149.753922 630.493164,146.597351 
	C621.645325,144.886429 612.293457,145.896744 603.188660,145.350052 
	C598.866028,145.090500 597.460815,146.361588 597.498840,150.870224 
	C597.706482,175.500961 597.584045,200.134506 597.575195,224.767075 
	C597.574646,226.396988 597.575134,228.026886 597.575134,230.193710 
	C606.252136,230.193710 614.371826,230.298767 622.487671,230.168427 
	C633.894531,229.985245 643.868774,226.393585 651.436890,217.413589 
	C653.646606,214.791687 655.878906,212.188843 658.440979,208.925751 
M515.486328,212.476501 
	C510.734192,212.476501 505.982025,212.476501 501.252380,212.476501 
	C501.252380,206.638733 501.252380,201.597107 501.252380,195.973541 
	C510.567688,195.973541 519.473938,195.973541 528.607605,195.973541 
	C528.607605,189.967911 528.607605,184.554504 528.607605,178.353638 
	C519.363037,178.353638 510.317749,178.353638 501.119141,178.353638 
	C501.119141,172.984314 501.119141,168.403854 501.119141,163.105240 
	C510.757477,163.105240 520.131531,163.105240 529.729248,163.105240 
	C529.729248,156.962296 529.729248,151.539078 529.729248,145.674728 
	C527.724304,145.581940 525.936340,145.431412 524.148010,145.427353 
	C511.989777,145.399750 499.826965,145.591476 487.675629,145.298004 
	C483.191864,145.189697 481.639771,146.298111 481.687225,151.060318 
	C481.934479,175.873962 481.819733,200.691177 481.852386,225.507126 
	C481.854279,226.942001 482.044220,228.376602 482.147644,229.825180 
	C498.231628,229.825180 513.947266,229.825180 530.002258,229.825180 
	C530.002258,228.312378 529.993591,227.168655 530.003540,226.025101 
	C530.121765,212.393494 530.122559,212.393494 515.486328,212.476501 
M177.797699,174.500076 
	C177.797699,192.920593 177.797699,211.341110 177.797699,229.784729 
	C194.121048,229.784729 209.830826,229.784729 225.911621,229.784729 
	C225.911621,225.744537 225.601303,222.075180 225.986771,218.480423 
	C226.520584,213.502213 224.514755,212.152054 219.767960,212.376144 
	C212.192596,212.733734 204.587982,212.471771 196.540817,212.471771 
	C196.540817,208.141159 196.780991,204.654266 196.477646,201.215302 
	C196.129227,197.265640 197.570587,195.912308 201.521118,196.040985 
	C208.977264,196.283890 216.446945,196.111145 224.024704,196.111145 
	C224.024704,189.990173 224.024704,184.292343 224.024704,178.346588 
	C218.059006,178.346588 212.575043,178.354767 207.091110,178.344879 
	C195.720657,178.324371 195.808624,178.325531 196.471893,166.861374 
	C196.636108,164.023087 197.755737,163.036057 200.430786,163.090881 
	C204.592209,163.176208 208.756699,163.117325 212.919876,163.109619 
	C226.394058,163.084671 226.300690,163.085098 225.988068,149.623672 
	C225.912689,146.378662 224.875534,145.310745 221.618179,145.347717 
	C208.296982,145.498947 194.973114,145.405045 181.650330,145.440918 
	C180.534805,145.443909 179.420074,145.741135 177.801178,145.974197 
	C177.801178,155.265244 177.801178,164.382614 177.797699,174.500076 
M805.038086,167.205322 
	C802.754333,160.800934 800.543091,154.368774 798.113464,148.020187 
	C797.719788,146.991470 796.379333,145.646683 795.437805,145.615479 
	C789.039246,145.403534 782.630310,145.504654 775.618042,145.504654 
	C776.253662,147.545914 776.524719,148.806351 777.026855,149.966751 
	C780.759827,158.593292 784.656128,167.151001 788.276733,175.823959 
	C794.322144,190.305832 800.146667,204.879807 806.166565,219.372482 
	C810.887695,230.738602 810.956421,230.709885 822.941101,230.200974 
	C823.273865,230.186829 823.683228,230.311157 823.927490,230.160751 
	C825.078491,229.452026 826.717773,228.924072 827.218811,227.872360 
	C830.275513,221.455536 833.164978,214.953918 835.931824,208.405197 
	C841.455017,195.332275 846.864685,182.211380 852.317810,169.108871 
	C855.471497,161.531387 858.618408,153.951080 862.169983,145.405518 
	C855.030212,145.405518 848.920105,145.277832 842.825500,145.528076 
	C841.779358,145.571030 840.325989,147.030334 839.862000,148.163452 
	C835.347717,159.187347 831.013977,170.285065 826.608154,181.353516 
	C824.152832,187.521744 821.658447,193.674423 818.667480,201.113037 
	C816.382263,195.441360 814.722778,191.337112 813.074524,187.228424 
	C810.494324,180.796967 807.921570,174.362549 805.038086,167.205322 
M744.702393,159.932953 
	C744.702393,155.190262 744.702393,150.447571 744.702393,145.649017 
	C728.282776,145.649017 712.850037,145.649017 697.133606,145.649017 
	C697.133606,173.901749 697.133606,201.888626 697.133606,229.895569 
	C713.094604,229.895569 728.660278,229.895569 744.671753,229.895569 
	C744.671753,225.604721 744.428040,221.619553 744.737366,217.677780 
	C745.075256,213.372620 743.350159,212.264862 739.242432,212.433060 
	C731.499023,212.750122 723.733398,212.524582 716.050293,212.524582 
	C716.050293,206.648331 716.050293,201.618561 716.050293,196.166046 
	C725.275635,196.166046 734.051208,196.166046 743.045776,196.166046 
	C743.045776,190.034058 743.045776,184.343887 743.045776,178.074799 
	C733.715515,178.074799 724.802979,178.074799 715.546814,178.074799 
	C715.546814,174.011353 715.702637,170.522614 715.500671,167.054703 
	C715.317383,163.907562 716.693298,163.038101 719.619446,163.097809 
	C726.609497,163.240417 733.608276,163.278488 740.593628,163.052979 
	C741.960632,163.008850 743.283081,161.584839 744.702393,159.932953 
M411.497253,145.466461 
	C406.170807,145.452454 400.831360,145.661850 395.522186,145.351883 
	C391.468079,145.115189 390.063232,146.338135 390.096802,150.596115 
	C390.290863,175.228607 390.202850,199.863312 390.210236,224.497269 
	C390.210754,226.271423 390.210266,228.045593 390.210266,229.936630 
	C396.809296,229.936630 402.728455,229.936630 409.353058,229.936630 
	C409.353058,219.358765 409.353058,209.013412 409.353058,198.526352 
	C419.591156,198.179855 428.890564,197.138336 437.648773,192.574844 
	C444.970398,188.759872 448.978943,182.841797 449.764740,175.185211 
	C450.730927,165.771088 448.295532,157.269928 440.113586,151.121628 
	C431.718842,144.813431 422.119873,145.284882 411.497253,145.466461 
M299.350220,230.159607 
	C300.964264,230.159607 302.578339,230.159607 304.749756,230.159607 
	C304.749756,225.546677 304.544128,221.414871 304.810211,217.313675 
	C305.054138,213.553635 303.609985,212.282288 299.925079,212.408661 
	C293.608673,212.625259 287.270691,212.277573 280.959595,212.562149 
	C276.823090,212.748688 275.125031,211.798737 275.197723,207.129227 
	C275.487885,188.486954 275.333282,169.837738 275.343048,151.191101 
	C275.343964,149.416840 275.343170,147.642578 275.343170,145.438171 
	C270.364410,145.438171 266.043427,145.675827 261.761047,145.370956 
	C257.526764,145.069534 256.448334,146.717407 256.477417,150.809372 
	C256.652527,175.449142 256.564789,200.090759 256.565063,224.731766 
	C256.565094,226.367599 256.565063,228.003433 256.565063,230.189926 
	C270.824921,230.189926 284.604980,230.189926 299.350220,230.159607 
M358.174744,210.499680 
	C358.174744,188.941910 358.174744,167.384140 358.174744,145.429077 
	C353.372162,145.429077 349.368164,145.732666 345.430573,145.350998 
	C340.678436,144.890396 339.167053,146.440094 339.215363,151.355911 
	C339.457581,176.004242 339.321747,200.656265 339.335144,225.306992 
	C339.335938,226.768539 339.479218,228.230011 339.562958,229.819397 
	C345.888611,229.819397 351.924042,229.819397 358.173248,229.819397 
	C358.173248,223.464218 358.173248,217.481903 358.174744,210.499680 
z"/>
<path fill="#FAFAFB" opacity="1.000000" stroke="none" 
	d="
M57.012291,236.247528 
	C49.225452,236.183701 41.838070,236.916000 35.945717,230.934998 
	C32.044346,226.974915 29.170609,222.598663 29.143768,217.018814 
	C29.017944,190.860779 28.865129,164.699478 29.166222,138.544479 
	C29.285858,128.151947 38.958046,119.886620 50.357288,119.292282 
	C61.651649,118.703400 70.008636,111.898354 72.123528,101.568130 
	C74.821709,88.388840 66.172707,76.143753 52.798149,74.662109 
	C44.551861,73.748589 37.335415,71.630753 32.332737,64.176331 
	C23.975843,51.723850 32.211605,33.989235 45.577759,32.851997 
	C57.727070,31.818295 70.033669,32.633224 82.429932,32.633224 
	C79.941093,35.275120 77.168541,37.586441 75.173141,40.441010 
	C64.006889,56.415165 77.917137,75.904282 92.762863,75.613564 
	C99.881973,75.474152 106.232437,77.723335 110.076439,83.698090 
	C112.670929,87.730705 114.443954,92.696625 115.157028,97.458794 
	C117.276863,111.615623 123.985382,118.258102 138.345306,119.325958 
	C147.738541,120.024483 154.204575,124.976402 157.708694,133.555344 
	C160.584579,140.596283 158.127335,150.090027 152.774658,155.284851 
	C145.858490,161.997025 137.671616,163.123795 129.244827,159.636948 
	C122.101807,156.681320 118.021225,150.749359 116.878532,142.779190 
	C116.230911,138.262131 115.362518,133.490585 113.278946,129.524231 
	C108.741280,120.886154 100.898788,116.971840 91.279701,118.156685 
	C81.945328,119.306458 75.384109,124.901833 72.318024,133.767242 
	C69.402924,142.196075 71.576775,149.769043 77.786209,156.222031 
	C82.023758,160.625809 87.046532,163.196716 93.201324,163.272156 
	C108.650932,163.461533 115.498901,175.370087 115.314163,187.484680 
	C115.187149,195.814117 115.305511,204.146988 115.238739,212.477722 
	C115.114197,228.016693 106.888817,236.224472 91.500931,236.234253 
	C80.170441,236.241440 68.839951,236.242645 57.012291,236.247528 
z"/>
<path fill="#F9FAFA" opacity="1.000000" stroke="none" 
	d="
M202.012878,48.167603 
	C202.270676,65.203728 202.984924,81.860229 202.356552,98.465935 
	C201.929108,109.762123 192.851181,117.548988 182.096634,117.892754 
	C171.749451,118.223495 163.251053,110.780212 160.807678,99.836479 
	C159.565369,94.272354 158.259537,88.490250 155.622116,83.529961 
	C152.495895,77.650360 146.490936,74.857735 139.822495,74.544296 
	C126.293243,73.908356 116.608574,65.332489 116.504257,51.173878 
	C116.445892,43.251381 111.421555,37.796104 104.861115,32.642513 
	C106.660759,32.362011 107.837296,32.020519 109.014420,32.018478 
	C132.825089,31.977236 156.636032,31.911705 180.446457,31.992495 
	C191.744186,32.030827 198.477905,37.124779 202.012878,48.167603 
z"/>
<path fill="#F5F6F7" opacity="1.000000" stroke="none" 
	d="
M658.270935,209.251511 
	C655.878906,212.188843 653.646606,214.791687 651.436890,217.413589 
	C643.868774,226.393585 633.894531,229.985245 622.487671,230.168427 
	C614.371826,230.298767 606.252136,230.193710 597.575134,230.193710 
	C597.575134,228.026886 597.574646,226.396988 597.575195,224.767075 
	C597.584045,200.134506 597.706482,175.500961 597.498840,150.870224 
	C597.460815,146.361588 598.866028,145.090500 603.188660,145.350052 
	C612.293457,145.896744 621.645325,144.886429 630.493164,146.597351 
	C646.817444,149.753922 657.035583,160.478149 662.020752,176.295578 
	C665.625671,187.733765 663.283569,198.450012 658.270935,209.251511 
M637.166199,206.710297 
	C644.192200,202.428375 646.194336,187.839218 644.346802,181.272232 
	C641.915894,172.631714 637.110901,165.995163 627.745117,164.198547 
	C616.546326,162.050308 616.505676,162.207855 616.494812,173.629440 
	C616.482727,186.383759 616.492065,199.138107 616.492065,212.344543 
	C624.198059,212.687805 630.908081,211.971649 637.166199,206.710297 
z"/>
<path fill="#F5F6F7" opacity="1.000000" stroke="none" 
	d="
M515.982300,212.475586 
	C530.122559,212.393494 530.121765,212.393494 530.003540,226.025101 
	C529.993591,227.168655 530.002258,228.312378 530.002258,229.825180 
	C513.947266,229.825180 498.231628,229.825180 482.147644,229.825180 
	C482.044220,228.376602 481.854279,226.942001 481.852386,225.507126 
	C481.819733,200.691177 481.934479,175.873962 481.687225,151.060318 
	C481.639771,146.298111 483.191864,145.189697 487.675629,145.298004 
	C499.826965,145.591476 511.989777,145.399750 524.148010,145.427353 
	C525.936340,145.431412 527.724304,145.581940 529.729248,145.674728 
	C529.729248,151.539078 529.729248,156.962296 529.729248,163.105240 
	C520.131531,163.105240 510.757477,163.105240 501.119141,163.105240 
	C501.119141,168.403854 501.119141,172.984314 501.119141,178.353638 
	C510.317749,178.353638 519.363037,178.353638 528.607605,178.353638 
	C528.607605,184.554504 528.607605,189.967911 528.607605,195.973541 
	C519.473938,195.973541 510.567688,195.973541 501.252380,195.973541 
	C501.252380,201.597107 501.252380,206.638733 501.252380,212.476501 
	C505.982025,212.476501 510.734192,212.476501 515.982300,212.475586 
z"/>
<path fill="#F6F7F8" opacity="1.000000" stroke="none" 
	d="
M177.799438,174.000031 
	C177.801178,164.382614 177.801178,155.265244 177.801178,145.974197 
	C179.420074,145.741135 180.534805,145.443909 181.650330,145.440918 
	C194.973114,145.405045 208.296982,145.498947 221.618179,145.347717 
	C224.875534,145.310745 225.912689,146.378662 225.988068,149.623672 
	C226.300690,163.085098 226.394058,163.084671 212.919876,163.109619 
	C208.756699,163.117325 204.592209,163.176208 200.430786,163.090881 
	C197.755737,163.036057 196.636108,164.023087 196.471893,166.861374 
	C195.808624,178.325531 195.720657,178.324371 207.091110,178.344879 
	C212.575043,178.354767 218.059006,178.346588 224.024704,178.346588 
	C224.024704,184.292343 224.024704,189.990173 224.024704,196.111145 
	C216.446945,196.111145 208.977264,196.283890 201.521118,196.040985 
	C197.570587,195.912308 196.129227,197.265640 196.477646,201.215302 
	C196.780991,204.654266 196.540817,208.141159 196.540817,212.471771 
	C204.587982,212.471771 212.192596,212.733734 219.767960,212.376144 
	C224.514755,212.152054 226.520584,213.502213 225.986771,218.480423 
	C225.601303,222.075180 225.911621,225.744537 225.911621,229.784729 
	C209.830826,229.784729 194.121048,229.784729 177.797699,229.784729 
	C177.797699,211.341110 177.797699,192.920593 177.799438,174.000031 
z"/>
<path fill="#F5F5F6" opacity="1.000000" stroke="none" 
	d="
M805.191895,167.567352 
	C807.921570,174.362549 810.494324,180.796967 813.074524,187.228424 
	C814.722778,191.337112 816.382263,195.441360 818.667480,201.113037 
	C821.658447,193.674423 824.152832,187.521744 826.608154,181.353516 
	C831.013977,170.285065 835.347717,159.187347 839.862000,148.163452 
	C840.325989,147.030334 841.779358,145.571030 842.825500,145.528076 
	C848.920105,145.277832 855.030212,145.405518 862.169983,145.405518 
	C858.618408,153.951080 855.471497,161.531387 852.317810,169.108871 
	C846.864685,182.211380 841.455017,195.332275 835.931824,208.405197 
	C833.164978,214.953918 830.275513,221.455536 827.218811,227.872360 
	C826.717773,228.924072 825.078491,229.452026 823.927490,230.160751 
	C823.683228,230.311157 823.273865,230.186829 822.941101,230.200974 
	C810.956421,230.709885 810.887695,230.738602 806.166565,219.372482 
	C800.146667,204.879807 794.322144,190.305832 788.276733,175.823959 
	C784.656128,167.151001 780.759827,158.593292 777.026855,149.966751 
	C776.524719,148.806351 776.253662,147.545914 775.618042,145.504654 
	C782.630310,145.504654 789.039246,145.403534 795.437805,145.615479 
	C796.379333,145.646683 797.719788,146.991470 798.113464,148.020187 
	C800.543091,154.368774 802.754333,160.800934 805.191895,167.567352 
z"/>
<path fill="#F5F6F7" opacity="1.000000" stroke="none" 
	d="
M744.664185,160.365112 
	C743.283081,161.584839 741.960632,163.008850 740.593628,163.052979 
	C733.608276,163.278488 726.609497,163.240417 719.619446,163.097809 
	C716.693298,163.038101 715.317383,163.907562 715.500671,167.054703 
	C715.702637,170.522614 715.546814,174.011353 715.546814,178.074799 
	C724.802979,178.074799 733.715515,178.074799 743.045776,178.074799 
	C743.045776,184.343887 743.045776,190.034058 743.045776,196.166046 
	C734.051208,196.166046 725.275635,196.166046 716.050293,196.166046 
	C716.050293,201.618561 716.050293,206.648331 716.050293,212.524582 
	C723.733398,212.524582 731.499023,212.750122 739.242432,212.433060 
	C743.350159,212.264862 745.075256,213.372620 744.737366,217.677780 
	C744.428040,221.619553 744.671753,225.604721 744.671753,229.895569 
	C728.660278,229.895569 713.094604,229.895569 697.133606,229.895569 
	C697.133606,201.888626 697.133606,173.901749 697.133606,145.649017 
	C712.850037,145.649017 728.282776,145.649017 744.702393,145.649017 
	C744.702393,150.447571 744.702393,155.190262 744.664185,160.365112 
z"/>
<path fill="#F6F7F8" opacity="1.000000" stroke="none" 
	d="
M411.996094,145.465546 
	C422.119873,145.284882 431.718842,144.813431 440.113586,151.121628 
	C448.295532,157.269928 450.730927,165.771088 449.764740,175.185211 
	C448.978943,182.841797 444.970398,188.759872 437.648773,192.574844 
	C428.890564,197.138336 419.591156,198.179855 409.353058,198.526352 
	C409.353058,209.013412 409.353058,219.358765 409.353058,229.936630 
	C402.728455,229.936630 396.809296,229.936630 390.210266,229.936630 
	C390.210266,228.045593 390.210754,226.271423 390.210236,224.497269 
	C390.202850,199.863312 390.290863,175.228607 390.096802,150.596115 
	C390.063232,146.338135 391.468079,145.115189 395.522186,145.351883 
	C400.831360,145.661850 406.170807,145.452454 411.996094,145.465546 
M427.442200,163.960220 
	C421.705170,161.628891 416.059326,158.757462 409.405884,160.815979 
	C409.405884,168.312042 409.405884,175.680466 409.405884,183.383179 
	C411.917114,183.383179 414.077881,183.549957 416.205780,183.356110 
	C430.084259,182.091934 434.563538,174.887756 427.442200,163.960220 
z"/>
<path fill="#F9F9FA" opacity="1.000000" stroke="none" 
	d="
M298.867615,230.174774 
	C284.604980,230.189926 270.824921,230.189926 256.565063,230.189926 
	C256.565063,228.003433 256.565094,226.367599 256.565063,224.731766 
	C256.564789,200.090759 256.652527,175.449142 256.477417,150.809372 
	C256.448334,146.717407 257.526764,145.069534 261.761047,145.370956 
	C266.043427,145.675827 270.364410,145.438171 275.343170,145.438171 
	C275.343170,147.642578 275.343964,149.416840 275.343048,151.191101 
	C275.333282,169.837738 275.487885,188.486954 275.197723,207.129227 
	C275.125031,211.798737 276.823090,212.748688 280.959595,212.562149 
	C287.270691,212.277573 293.608673,212.625259 299.925079,212.408661 
	C303.609985,212.282288 305.054138,213.553635 304.810211,217.313675 
	C304.544128,221.414871 304.749756,225.546677 304.749756,230.159607 
	C302.578339,230.159607 300.964264,230.159607 298.867615,230.174774 
z"/>
<path fill="#F6F7F8" opacity="1.000000" stroke="none" 
	d="
M358.174011,210.999634 
	C358.173248,217.481903 358.173248,223.464218 358.173248,229.819397 
	C351.924042,229.819397 345.888611,229.819397 339.562958,229.819397 
	C339.479218,228.230011 339.335938,226.768539 339.335144,225.306992 
	C339.321747,200.656265 339.457581,176.004242 339.215363,151.355911 
	C339.167053,146.440094 340.678436,144.890396 345.430573,145.350998 
	C349.368164,145.732666 353.372162,145.429077 358.174744,145.429077 
	C358.174744,167.384140 358.174744,188.941910 358.174011,210.999634 
z"/>
<path fill="#141E2F" opacity="1.000000" stroke="none" 
	d="
M636.920471,206.987579 
	C630.908081,211.971649 624.198059,212.687805 616.492065,212.344543 
	C616.492065,199.138107 616.482727,186.383759 616.494812,173.629440 
	C616.505676,162.207855 616.546326,162.050308 627.745117,164.198547 
	C637.110901,165.995163 641.915894,172.631714 644.346802,181.272232 
	C646.194336,187.839218 644.192200,202.428375 636.920471,206.987579 
z"/>
<path fill="#182232" opacity="1.000000" stroke="none" 
	d="
M427.724060,164.222931 
	C434.563538,174.887756 430.084259,182.091934 416.205780,183.356110 
	C414.077881,183.549957 411.917114,183.383179 409.405884,183.383179 
	C409.405884,175.680466 409.405884,168.312042 409.405884,160.815979 
	C416.059326,158.757462 421.705170,161.628891 427.724060,164.222931 
z"/>
</svg>