<svg version="1.1" id="Layer_1" xmlns="http://www.w3.org/2000/svg" xmlns:xlink="http://www.w3.org/1999/xlink" x="0px" y="0px"
	 width="100%" viewBox="0 0 857 248" enable-background="new 0 0 857 248" xml:space="preserve">
<path fill="#0C1222" opacity="1.000000" stroke="none" 
	d="
M564.000000,249.000000 
	C376.042419,249.000000 188.584824,249.000000 1.063619,249.000000 
	C1.063619,166.394485 1.063619,83.788910 1.063619,1.091667 
	C286.666656,1.091667 572.333313,1.091667 857.966675,1.091667 
	C857.966675,83.748474 857.966675,166.374252 857.966675,249.000000 
	C760.122253,249.000000 662.311157,249.000000 564.000000,249.000000 
M96.839714,89.906288 
	C94.100456,78.695557 87.516373,73.239571 76.072899,72.697571 
	C66.117714,72.226051 58.374886,66.291512 55.728516,57.104454 
	C53.072998,47.885670 56.400757,38.579163 64.382233,32.894760 
	C65.272087,32.261009 66.152222,31.613613 67.992043,30.280357 
	C55.280991,30.280357 43.671318,29.661497 32.159477,30.457495 
	C21.041529,31.226257 13.413803,40.846958 13.849887,51.696918 
	C14.283575,62.487259 22.596205,70.877068 33.304054,71.331711 
	C46.680450,71.899658 55.995377,80.939888 56.164734,93.518250 
	C56.327118,105.578552 47.133751,114.338036 33.541748,115.073547 
	C22.590117,115.666176 13.938141,124.216621 13.869930,135.127533 
	C13.717880,159.449707 13.726686,183.774185 13.882585,208.096375 
	C13.959753,220.135620 22.888968,228.709625 34.941189,228.750473 
	C48.435383,228.796219 61.929943,228.787949 75.424194,228.750320 
	C88.404434,228.714111 97.096848,220.186661 97.262871,207.250244 
	C97.369751,198.921768 97.297043,190.590805 97.282356,182.260971 
	C97.253471,165.878311 90.801910,158.831680 74.608109,157.467346 
	C65.278023,156.681290 57.768085,150.219833 55.496429,141.023926 
	C53.231125,131.853760 57.247097,122.101044 65.188881,117.210480 
	C79.349045,108.490623 98.108299,117.686050 98.805099,136.768387 
	C99.250229,148.958618 108.647186,156.753693 120.855347,156.175858 
	C131.110703,155.690475 139.859619,146.220886 139.625153,135.859970 
	C139.358185,124.064590 130.776886,115.557907 119.092690,114.962044 
	C115.553513,114.781563 111.783302,113.951736 108.629173,112.389282 
	C99.803932,108.017540 97.337173,99.854958 96.839714,89.906288 
M144.141846,104.184151 
	C150.498703,112.707726 158.783752,115.846748 167.586304,113.066704 
	C176.752548,110.171783 182.116364,102.291649 182.143112,91.555984 
	C182.175079,78.729218 182.229645,65.901726 182.132675,53.075619 
	C182.021729,38.404148 173.667709,30.185202 159.083694,30.186283 
	C139.760132,30.187714 120.436577,30.185665 101.113014,30.185171 
	C96.352905,30.185049 91.592804,30.185154 86.832695,30.185154 
	C95.889809,36.153732 98.312531,44.742729 99.179543,54.698513 
	C99.978951,63.877853 108.638832,70.941399 117.677147,71.330826 
	C131.936798,71.945198 139.802765,79.681938 141.187912,94.009926 
	C141.499832,97.236305 142.886368,100.358795 144.141846,104.184151 
M751.459412,203.499542 
	C751.459656,209.332779 751.427002,215.166229 751.468201,220.999176 
	C751.523987,228.874756 754.017639,231.315475 762.041687,231.343094 
	C770.708130,231.372894 779.384460,231.604141 788.038208,231.271637 
	C795.611938,230.980637 803.296570,230.706238 810.688965,229.217072 
	C822.802856,226.776749 831.256409,219.677048 832.272034,206.663223 
	C833.174622,195.098923 833.285156,183.446899 833.158569,171.839981 
	C833.101990,166.645523 830.118713,164.611862 824.395020,164.478714 
	C818.731506,164.347000 813.061890,164.391800 807.396240,164.463654 
	C799.898987,164.558716 797.400940,167.190979 797.381348,174.859604 
	C797.362610,182.192734 797.292236,189.526794 797.385559,196.858643 
	C797.428406,200.222458 796.406006,202.336609 792.664673,202.396667 
	C788.775208,202.459091 787.373047,200.416290 787.403198,196.770935 
	C787.466736,189.105042 787.478516,181.437378 787.386292,173.771957 
	C787.307495,167.229019 784.851379,164.675369 778.372131,164.497955 
	C772.709717,164.342926 767.039124,164.384277 761.373840,164.459549 
	C754.101807,164.556152 751.572632,167.113678 751.508179,174.501434 
	C751.426819,183.833588 751.469604,193.166855 751.459412,203.499542 
M614.230713,164.441940 
	C603.071289,164.441772 591.911865,164.424927 580.752502,164.446609 
	C571.443054,164.464706 568.858582,167.024734 568.863464,176.104691 
	C568.871704,191.261459 568.833618,206.418381 568.896057,221.574905 
	C568.924927,228.580200 571.326965,231.361603 577.911804,231.294205 
	C593.353394,231.136154 608.877441,231.566116 624.205750,230.081451 
	C637.335938,228.809708 645.800537,224.683029 649.987183,210.465302 
	C651.495239,205.343948 652.007812,199.634171 651.595642,194.299469 
	C650.475037,179.795502 644.862671,169.653748 628.336853,166.453827 
	C623.981628,165.610504 619.561401,165.103027 614.230713,164.441940 
M425.283447,169.178680 
	C420.524658,167.602966 415.804565,164.822159 411.000153,164.668060 
	C393.693726,164.112915 376.358124,164.348663 359.035156,164.488281 
	C352.560242,164.540482 349.176697,167.704437 349.139679,173.512024 
	C349.035645,189.835983 349.024384,206.161758 349.157990,222.485336 
	C349.207977,228.592194 351.930145,231.182068 358.036743,231.316635 
	C364.363678,231.456055 370.697632,231.436356 377.025543,231.322052 
	C383.435272,231.206268 385.886475,228.666428 386.072540,222.151779 
	C386.161713,219.028915 386.087860,215.901398 386.087860,212.977966 
	C386.937378,212.665970 387.247437,212.453766 387.558533,212.452225 
	C394.886932,212.415894 402.219116,212.543396 409.543060,212.352173 
	C421.138672,212.049393 429.884430,208.451126 431.564880,195.229752 
	C432.717590,186.160599 432.952728,177.014633 425.283447,169.178680 
M669.676270,180.575562 
	C669.675232,194.240128 669.629089,207.904892 669.691772,221.569153 
	C669.723755,228.551086 672.140564,231.258179 678.762756,231.306259 
	C695.425964,231.427307 712.093384,231.489151 728.751587,231.176117 
	C730.874512,231.136230 733.559204,229.150879 734.879517,227.285370 
	C736.175537,225.454041 736.477905,222.630783 736.503235,220.235291 
	C736.680359,203.484192 735.501831,202.350922 718.939087,202.375961 
	C714.993103,202.381927 711.047180,202.376846 706.886536,202.376846 
	C706.886536,199.144241 706.886536,196.570923 706.886536,193.435501 
	C713.593750,193.435501 720.042786,193.356644 726.488708,193.465668 
	C730.238892,193.529083 733.512878,192.728195 733.450928,188.337219 
	C733.388489,183.918503 729.975037,183.329071 726.310608,183.380386 
	C719.882141,183.470413 713.451538,183.405518 706.929199,183.405518 
	C706.929199,180.120575 706.929199,177.545319 706.929199,174.479660 
	C715.010742,174.479660 722.801147,174.458740 730.591370,174.489594 
	C733.865967,174.502579 736.415222,173.234497 736.411499,169.781921 
	C736.407837,166.325882 734.069153,164.503387 730.556885,164.414154 
	C729.891357,164.397247 729.224426,164.447403 728.558105,164.447327 
	C714.060303,164.445709 699.562500,164.440796 685.064697,164.437668 
	C670.778381,164.434586 669.689148,165.508835 669.676270,180.575562 
M189.219879,183.398376 
	C183.440826,183.398376 177.661774,183.398376 171.647369,183.398376 
	C171.647369,180.222763 171.647369,177.664719 171.647369,174.485596 
	C179.677658,174.485596 187.456833,174.444550 195.235229,174.504135 
	C198.750076,174.531067 201.674911,173.058762 201.036194,169.527512 
	C200.680908,167.563324 197.539276,164.689774 195.599670,164.646729 
	C178.456146,164.266235 161.298538,164.277206 144.149506,164.504929 
	C137.176804,164.597504 134.450150,167.847412 134.438385,174.829575 
	C134.412277,190.316315 134.394669,205.803268 134.452560,221.289841 
	C134.479691,228.545456 136.925156,231.265579 143.766998,231.311584 
	C160.252182,231.422424 176.738678,231.325027 193.224380,231.384247 
	C196.634277,231.396500 199.377884,230.125824 200.046997,226.822983 
	C200.888321,222.670166 201.189865,218.360397 201.265778,214.110168 
	C201.418533,205.555939 198.162796,202.398193 189.656113,202.377228 
	C183.715530,202.362595 177.774872,202.374405 171.684967,202.374405 
	C171.684967,199.133469 171.684967,196.572800 171.684967,193.738037 
	C173.430847,193.626312 174.889084,193.460587 176.348221,193.452423 
	C182.009857,193.420746 187.673859,193.530869 193.332779,193.402771 
	C196.461624,193.331924 198.739319,191.349396 198.112457,188.381912 
	C197.714478,186.497849 195.343231,184.868210 193.559631,183.516800 
	C192.814911,182.952560 191.298492,183.406830 189.219879,183.398376 
M507.095551,164.468002 
	C491.107239,164.458237 475.118866,164.416595 459.130646,164.452805 
	C451.702209,164.469620 448.100525,167.234680 448.053345,173.330963 
	C447.927032,189.651505 447.938354,205.974228 448.055573,222.294937 
	C448.100128,228.500977 450.712036,231.256012 456.767365,231.304779 
	C473.587158,231.440186 490.411499,231.480942 507.226349,231.158508 
	C509.334412,231.118088 512.656921,229.068344 513.224854,227.260895 
	C514.523132,223.128799 514.779236,218.578018 514.888672,214.183075 
	C515.099548,205.713043 511.673676,202.390274 503.332184,202.378586 
	C497.385773,202.370239 491.439392,202.376968 485.342926,202.376968 
	C485.342926,199.132050 485.342926,196.420456 485.342926,193.430374 
	C492.336395,193.430374 498.989105,193.384583 505.640747,193.449265 
	C509.078247,193.482697 511.738495,192.324432 511.869781,188.611008 
	C512.001526,184.884033 509.456085,183.443268 505.983917,183.417603 
	C504.318512,183.405289 502.653015,183.403030 500.987579,183.402451 
	C495.746796,183.400635 490.506012,183.401779 485.293335,183.401779 
	C485.293335,180.000900 485.293335,177.414322 485.293335,174.461121 
	C493.066925,174.461121 500.542938,174.381836 508.015961,174.495834 
	C511.553894,174.549789 514.787048,173.781723 514.805298,169.784363 
	C514.823486,165.807663 511.888153,164.162582 507.095551,164.468002 
M276.569946,205.204025 
	C273.342773,204.261078 270.166443,202.846268 266.875854,202.491455 
	C262.503815,202.020035 258.042633,202.375168 253.240433,202.375168 
	C253.240433,192.350891 253.308167,183.052139 253.216354,173.754959 
	C253.156342,167.676178 250.130981,164.579666 244.139236,164.464462 
	C237.812042,164.342789 231.475739,164.294785 225.152252,164.494278 
	C219.068253,164.686203 216.353317,167.394424 216.309845,173.485687 
	C216.193329,189.808670 216.188004,206.133774 216.323273,222.456512 
	C216.371979,228.336487 219.066299,231.235275 224.772171,231.301285 
	C240.094482,231.478607 255.427277,231.581070 270.737488,231.111710 
	C273.165131,231.037292 277.359436,228.011154 277.534760,226.061737 
	C278.132721,219.412674 277.300018,212.634964 276.569946,205.204025 
M329.837830,228.043228 
	C330.270081,226.120483 331.065582,224.199982 331.077454,222.274643 
	C331.178040,205.942993 331.201385,189.610077 331.099152,173.278458 
	C331.065552,167.913696 327.830017,164.618622 322.557770,164.480530 
	C316.062805,164.310425 309.556152,164.314316 303.061279,164.490280 
	C297.100861,164.651764 294.290649,167.119720 294.226196,172.904465 
	C294.040619,189.567825 294.067993,206.235931 294.246155,222.899643 
	C294.304718,228.377380 296.739197,230.980026 302.093018,231.235550 
	C309.242737,231.576797 316.428741,231.498795 323.582092,231.196915 
	C325.530823,231.114685 327.418304,229.581879 329.837830,228.043228 
z"/>
<path fill="#FBFCFC" opacity="1.000000" stroke="none" 
	d="
M96.895920,90.321747 
	C97.337173,99.854958 99.803932,108.017540 108.629173,112.389282 
	C111.783302,113.951736 115.553513,114.781563 119.092690,114.962044 
	C130.776886,115.557907 139.358185,124.064590 139.625153,135.859970 
	C139.859619,146.220886 131.110703,155.690475 120.855347,156.175858 
	C108.647186,156.753693 99.250229,148.958618 98.805099,136.768387 
	C98.108299,117.686050 79.349045,108.490623 65.188881,117.210480 
	C57.247097,122.101044 53.231125,131.853760 55.496429,141.023926 
	C57.768085,150.219833 65.278023,156.681290 74.608109,157.467346 
	C90.801910,158.831680 97.253471,165.878311 97.282356,182.260971 
	C97.297043,190.590805 97.369751,198.921768 97.262871,207.250244 
	C97.096848,220.186661 88.404434,228.714111 75.424194,228.750320 
	C61.929943,228.787949 48.435383,228.796219 34.941189,228.750473 
	C22.888968,228.709625 13.959753,220.135620 13.882585,208.096375 
	C13.726686,183.774185 13.717880,159.449707 13.869930,135.127533 
	C13.938141,124.216621 22.590117,115.666176 33.541748,115.073547 
	C47.133751,114.338036 56.327118,105.578552 56.164734,93.518250 
	C55.995377,80.939888 46.680450,71.899658 33.304054,71.331711 
	C22.596205,70.877068 14.283575,62.487259 13.849887,51.696918 
	C13.413803,40.846958 21.041529,31.226257 32.159477,30.457495 
	C43.671318,29.661497 55.280991,30.280357 67.992043,30.280357 
	C66.152222,31.613613 65.272087,32.261009 64.382233,32.894760 
	C56.400757,38.579163 53.072998,47.885670 55.728516,57.104454 
	C58.374886,66.291512 66.117714,72.226051 76.072899,72.697571 
	C87.516373,73.239571 94.100456,78.695557 96.895920,90.321747 
z"/>
<path fill="#FBFBFC" opacity="1.000000" stroke="none" 
	d="
M143.960022,103.856628 
	C142.886368,100.358795 141.499832,97.236305 141.187912,94.009926 
	C139.802765,79.681938 131.936798,71.945198 117.677147,71.330826 
	C108.638832,70.941399 99.978951,63.877853 99.179543,54.698513 
	C98.312531,44.742729 95.889809,36.153732 86.832695,30.185154 
	C91.592804,30.185154 96.352905,30.185049 101.113014,30.185171 
	C120.436577,30.185665 139.760132,30.187714 159.083694,30.186283 
	C173.667709,30.185202 182.021729,38.404148 182.132675,53.075619 
	C182.229645,65.901726 182.175079,78.729218 182.143112,91.555984 
	C182.116364,102.291649 176.752548,110.171783 167.586304,113.066704 
	C158.783752,115.846748 150.498703,112.707726 143.960022,103.856628 
z"/>
<path fill="#FAFAFB" opacity="1.000000" stroke="none" 
	d="
M751.459106,202.999588 
	C751.469604,193.166855 751.426819,183.833588 751.508179,174.501434 
	C751.572632,167.113678 754.101807,164.556152 761.373840,164.459549 
	C767.039124,164.384277 772.709717,164.342926 778.372131,164.497955 
	C784.851379,164.675369 787.307495,167.229019 787.386292,173.771957 
	C787.478516,181.437378 787.466736,189.105042 787.403198,196.770935 
	C787.373047,200.416290 788.775208,202.459091 792.664673,202.396667 
	C796.406006,202.336609 797.428406,200.222458 797.385559,196.858643 
	C797.292236,189.526794 797.362610,182.192734 797.381348,174.859604 
	C797.400940,167.190979 799.898987,164.558716 807.396240,164.463654 
	C813.061890,164.391800 818.731506,164.347000 824.395020,164.478714 
	C830.118713,164.611862 833.101990,166.645523 833.158569,171.839981 
	C833.285156,183.446899 833.174622,195.098923 832.272034,206.663223 
	C831.256409,219.677048 822.802856,226.776749 810.688965,229.217072 
	C803.296570,230.706238 795.611938,230.980637 788.038208,231.271637 
	C779.384460,231.604141 770.708130,231.372894 762.041687,231.343094 
	C754.017639,231.315475 751.523987,228.874756 751.468201,220.999176 
	C751.427002,215.166229 751.459656,209.332779 751.459106,202.999588 
z"/>
<path fill="#FBFBFB" opacity="1.000000" stroke="none" 
	d="
M614.700867,164.441635 
	C619.561401,165.103027 623.981628,165.610504 628.336853,166.453827 
	C644.862671,169.653748 650.475037,179.795502 651.595642,194.299469 
	C652.007812,199.634171 651.495239,205.343948 649.987183,210.465302 
	C645.800537,224.683029 637.335938,228.809708 624.205750,230.081451 
	C608.877441,231.566116 593.353394,231.136154 577.911804,231.294205 
	C571.326965,231.361603 568.924927,228.580200 568.896057,221.574905 
	C568.833618,206.418381 568.871704,191.261459 568.863464,176.104691 
	C568.858582,167.024734 571.443054,164.464706 580.752502,164.446609 
	C591.911865,164.424927 603.071289,164.441772 614.700867,164.441635 
M606.880676,202.021042 
	C611.278259,204.321625 614.566956,203.470078 614.729614,199.609818 
	C615.043274,192.164566 615.083191,184.680725 614.604553,177.253632 
	C614.516541,175.887177 611.561646,174.052536 609.695068,173.708359 
	C608.643066,173.514389 606.004211,175.898056 605.975525,177.163452 
	C605.792664,185.243042 606.136536,193.334534 606.880676,202.021042 
z"/>
<path fill="#FBFBFC" opacity="1.000000" stroke="none" 
	d="
M425.546783,169.430634 
	C432.952728,177.014633 432.717590,186.160599 431.564880,195.229752 
	C429.884430,208.451126 421.138672,212.049393 409.543060,212.352173 
	C402.219116,212.543396 394.886932,212.415894 387.558533,212.452225 
	C387.247437,212.453766 386.937378,212.665970 386.087860,212.977966 
	C386.087860,215.901398 386.161713,219.028915 386.072540,222.151779 
	C385.886475,228.666428 383.435272,231.206268 377.025543,231.322052 
	C370.697632,231.436356 364.363678,231.456055 358.036743,231.316635 
	C351.930145,231.182068 349.207977,228.592194 349.157990,222.485336 
	C349.024384,206.161758 349.035645,189.835983 349.139679,173.512024 
	C349.176697,167.704437 352.560242,164.540482 359.035156,164.488281 
	C376.358124,164.348663 393.693726,164.112915 411.000153,164.668060 
	C415.804565,164.822159 420.524658,167.602966 425.546783,169.430634 
M396.086761,182.607834 
	C396.086792,181.446716 395.944946,180.264633 396.113007,179.128372 
	C396.654846,175.464401 394.533478,173.748734 391.445251,173.534363 
	C388.194489,173.308746 386.184479,175.291107 386.105103,178.656570 
	C386.007416,182.799576 385.550385,187.066711 386.390869,191.038498 
	C386.763123,192.797577 389.771698,194.762222 391.883453,195.205917 
	C394.850250,195.829269 396.167023,193.475250 396.097931,190.518127 
	C396.043701,188.197174 396.086975,185.873947 396.086761,182.607834 
z"/>
<path fill="#F9F9FA" opacity="1.000000" stroke="none" 
	d="
M669.676514,180.090652 
	C669.689148,165.508835 670.778381,164.434586 685.064697,164.437668 
	C699.562500,164.440796 714.060303,164.445709 728.558105,164.447327 
	C729.224426,164.447403 729.891357,164.397247 730.556885,164.414154 
	C734.069153,164.503387 736.407837,166.325882 736.411499,169.781921 
	C736.415222,173.234497 733.865967,174.502579 730.591370,174.489594 
	C722.801147,174.458740 715.010742,174.479660 706.929199,174.479660 
	C706.929199,177.545319 706.929199,180.120575 706.929199,183.405518 
	C713.451538,183.405518 719.882141,183.470413 726.310608,183.380386 
	C729.975037,183.329071 733.388489,183.918503 733.450928,188.337219 
	C733.512878,192.728195 730.238892,193.529083 726.488708,193.465668 
	C720.042786,193.356644 713.593750,193.435501 706.886536,193.435501 
	C706.886536,196.570923 706.886536,199.144241 706.886536,202.376846 
	C711.047180,202.376846 714.993103,202.381927 718.939087,202.375961 
	C735.501831,202.350922 736.680359,203.484192 736.503235,220.235291 
	C736.477905,222.630783 736.175537,225.454041 734.879517,227.285370 
	C733.559204,229.150879 730.874512,231.136230 728.751587,231.176117 
	C712.093384,231.489151 695.425964,231.427307 678.762756,231.306259 
	C672.140564,231.258179 669.723755,228.551086 669.691772,221.569153 
	C669.629089,207.904892 669.675232,194.240128 669.676514,180.090652 
z"/>
<path fill="#F9F9F9" opacity="1.000000" stroke="none" 
	d="
M189.676422,183.398193 
	C191.298492,183.406830 192.814911,182.952560 193.559631,183.516800 
	C195.343231,184.868210 197.714478,186.497849 198.112457,188.381912 
	C198.739319,191.349396 196.461624,193.331924 193.332779,193.402771 
	C187.673859,193.530869 182.009857,193.420746 176.348221,193.452423 
	C174.889084,193.460587 173.430847,193.626312 171.684967,193.738037 
	C171.684967,196.572800 171.684967,199.133469 171.684967,202.374405 
	C177.774872,202.374405 183.715530,202.362595 189.656113,202.377228 
	C198.162796,202.398193 201.418533,205.555939 201.265778,214.110168 
	C201.189865,218.360397 200.888321,222.670166 200.046997,226.822983 
	C199.377884,230.125824 196.634277,231.396500 193.224380,231.384247 
	C176.738678,231.325027 160.252182,231.422424 143.766998,231.311584 
	C136.925156,231.265579 134.479691,228.545456 134.452560,221.289841 
	C134.394669,205.803268 134.412277,190.316315 134.438385,174.829575 
	C134.450150,167.847412 137.176804,164.597504 144.149506,164.504929 
	C161.298538,164.277206 178.456146,164.266235 195.599670,164.646729 
	C197.539276,164.689774 200.680908,167.563324 201.036194,169.527512 
	C201.674911,173.058762 198.750076,174.531067 195.235229,174.504135 
	C187.456833,174.444550 179.677658,174.485596 171.647369,174.485596 
	C171.647369,177.664719 171.647369,180.222763 171.647369,183.398376 
	C177.661774,183.398376 183.440826,183.398376 189.676422,183.398193 
z"/>
<path fill="#F9FAFA" opacity="1.000000" stroke="none" 
	d="
M507.540649,164.455963 
	C511.888153,164.162582 514.823486,165.807663 514.805298,169.784363 
	C514.787048,173.781723 511.553894,174.549789 508.015961,174.495834 
	C500.542938,174.381836 493.066925,174.461121 485.293335,174.461121 
	C485.293335,177.414322 485.293335,180.000900 485.293335,183.401779 
	C490.506012,183.401779 495.746796,183.400635 500.987579,183.402451 
	C502.653015,183.403030 504.318512,183.405289 505.983917,183.417603 
	C509.456085,183.443268 512.001526,184.884033 511.869781,188.611008 
	C511.738495,192.324432 509.078247,193.482697 505.640747,193.449265 
	C498.989105,193.384583 492.336395,193.430374 485.342926,193.430374 
	C485.342926,196.420456 485.342926,199.132050 485.342926,202.376968 
	C491.439392,202.376968 497.385773,202.370239 503.332184,202.378586 
	C511.673676,202.390274 515.099548,205.713043 514.888672,214.183075 
	C514.779236,218.578018 514.523132,223.128799 513.224854,227.260895 
	C512.656921,229.068344 509.334412,231.118088 507.226349,231.158508 
	C490.411499,231.480942 473.587158,231.440186 456.767365,231.304779 
	C450.712036,231.256012 448.100128,228.500977 448.055573,222.294937 
	C447.938354,205.974228 447.927032,189.651505 448.053345,173.330963 
	C448.100525,167.234680 451.702209,164.469620 459.130646,164.452805 
	C475.118866,164.416595 491.107239,164.458237 507.540649,164.455963 
z"/>
<path fill="#FAFAFB" opacity="1.000000" stroke="none" 
	d="
M276.791626,205.555176 
	C277.300018,212.634964 278.132721,219.412674 277.534760,226.061737 
	C277.359436,228.011154 273.165131,231.037292 270.737488,231.111710 
	C255.427277,231.581070 240.094482,231.478607 224.772171,231.301285 
	C219.066299,231.235275 216.371979,228.336487 216.323273,222.456512 
	C216.188004,206.133774 216.193329,189.808670 216.309845,173.485687 
	C216.353317,167.394424 219.068253,164.686203 225.152252,164.494278 
	C231.475739,164.294785 237.812042,164.342789 244.139236,164.464462 
	C250.130981,164.579666 253.156342,167.676178 253.216354,173.754959 
	C253.308167,183.052139 253.240433,192.350891 253.240433,202.375168 
	C258.042633,202.375168 262.503815,202.020035 266.875854,202.491455 
	C270.166443,202.846268 273.342773,204.261078 276.791626,205.555176 
z"/>
<path fill="#FBFBFC" opacity="1.000000" stroke="none" 
	d="
M329.585846,228.379013 
	C327.418304,229.581879 325.530823,231.114685 323.582092,231.196915 
	C316.428741,231.498795 309.242737,231.576797 302.093018,231.235550 
	C296.739197,230.980026 294.304718,228.377380 294.246155,222.899643 
	C294.067993,206.235931 294.040619,189.567825 294.226196,172.904465 
	C294.290649,167.119720 297.100861,164.651764 303.061279,164.490280 
	C309.556152,164.314316 316.062805,164.310425 322.557770,164.480530 
	C327.830017,164.618622 331.065552,167.913696 331.099152,173.278458 
	C331.201385,189.610077 331.178040,205.942993 331.077454,222.274643 
	C331.065582,224.199982 330.270081,226.120483 329.585846,228.379013 
z"/>
<path fill="#1A1E2C" opacity="1.000000" stroke="none" 
	d="
M606.593872,201.721588 
	C606.136536,193.334534 605.792664,185.243042 605.975525,177.163452 
	C606.004211,175.898056 608.643066,173.514389 609.695068,173.708359 
	C611.561646,174.052536 614.516541,175.887177 614.604553,177.253632 
	C615.083191,184.680725 615.043274,192.164566 614.729614,199.609818 
	C614.566956,203.470078 611.278259,204.321625 606.593872,201.721588 
z"/>
<path fill="#151A26" opacity="1.000000" stroke="none" 
	d="
M396.086853,183.079773 
	C396.086975,185.873947 396.043701,188.197174 396.097931,190.518127 
	C396.167023,193.475250 394.850250,195.829269 391.883453,195.205917 
	C389.771698,194.762222 386.763123,192.797577 386.390869,191.038498 
	C385.550385,187.066711 386.007416,182.799576 386.105103,178.656570 
	C386.184479,175.291107 388.194489,173.308746 391.445251,173.534363 
	C394.533478,173.748734 396.654846,175.464401 396.113007,179.128372 
	C395.944946,180.264633 396.086792,181.446716 396.086853,183.079773 
z"/>
</svg>