<svg version="1.1" id="Layer_1" xmlns="http://www.w3.org/2000/svg" xmlns:xlink="http://www.w3.org/1999/xlink" x="0px" y="0px"
	 width="100%" viewBox="0 0 845 230" enable-background="new 0 0 845 230" xml:space="preserve">
<path fill="#FEFEFE" opacity="1.000000" stroke="none" 
	d="
M582.000000,231.000000 
	C388.044983,231.000000 194.589935,231.000000 1.067454,231.000000 
	C1.067454,154.396164 1.067454,77.792267 1.067454,1.094180 
	C282.666656,1.094180 564.333313,1.094180 845.969116,1.094180 
	C845.969116,77.743439 845.969116,154.371735 845.969116,231.000000 
	C758.125549,231.000000 670.312744,231.000000 582.000000,231.000000 
M58.214657,26.898878 
	C60.796291,24.191410 63.377930,21.483942 66.327660,18.390438 
	C54.764900,18.390438 43.478455,17.737968 32.303177,18.573137 
	C21.028612,19.415726 13.527287,28.919806 14.039142,39.802025 
	C14.554628,50.761433 22.895411,58.770031 34.184780,59.145344 
	C46.792759,59.564499 56.254448,69.096535 56.395695,81.521393 
	C56.531086,93.430923 47.166912,102.563934 34.262676,103.108047 
	C23.254578,103.572205 14.275578,111.490517 14.138920,122.093452 
	C13.814799,147.241013 13.782927,172.399887 14.177299,197.545639 
	C14.348813,208.481628 23.162632,216.468903 34.103844,216.600754 
	C48.260769,216.771347 62.423740,216.772278 76.579971,216.564392 
	C88.093567,216.395325 96.583435,208.300858 96.999863,196.856705 
	C97.375130,186.543869 97.420074,176.190506 96.966072,165.883408 
	C96.428879,153.687714 88.610458,146.318466 76.522652,145.709335 
	C75.525932,145.659119 74.520599,145.639420 73.537102,145.489014 
	C64.141769,144.052124 58.153728,138.513611 55.574543,129.596191 
	C52.951847,120.528343 55.773499,112.751122 62.853119,106.714424 
	C69.683891,100.889908 79.360367,100.211868 87.173882,104.456398 
	C95.385422,108.917152 98.259094,116.190491 98.967201,125.075027 
	C100.153229,139.956039 115.341507,148.739990 128.015747,142.167389 
	C136.970062,137.523865 141.168427,128.403473 138.820953,118.694618 
	C136.614807,109.570213 128.600327,103.361092 118.701180,103.107025 
	C107.114563,102.809654 98.499245,94.943909 97.258736,83.537178 
	C97.042824,81.551804 96.919815,79.547073 96.552979,77.588921 
	C94.693840,67.664978 87.142242,61.225952 77.022346,60.852360 
	C59.023499,60.187908 49.337967,43.389122 58.214657,26.898878 
M118.413834,59.164230 
	C132.491287,59.395462 140.886017,69.703125 141.480789,82.903320 
	C141.995880,94.334869 151.565430,102.287392 162.545654,101.836502 
	C173.099945,101.403107 181.765579,92.580841 181.940552,81.515297 
	C182.161560,67.538528 182.204422,53.550774 181.911255,39.576420 
	C181.637131,26.510578 172.903137,18.284744 159.845459,18.269533 
	C138.042984,18.244133 116.240433,18.285505 94.437912,18.298399 
	C92.186562,18.299732 89.935219,18.298578 87.683868,18.298578 
	C96.146095,24.421179 98.493652,32.746571 99.319710,42.320599 
	C100.119896,51.594883 108.096313,58.318600 118.413834,59.164230 
M602.498474,151.659958 
	C594.677368,151.651215 586.852417,151.488159 579.036194,151.678482 
	C571.676514,151.857697 568.977844,154.765060 568.952576,162.119888 
	C568.899353,177.594574 568.870544,193.069702 568.926819,208.544296 
	C568.951538,215.326843 571.478821,218.146057 578.139343,218.089890 
	C593.566650,217.959793 609.032532,218.076340 624.400635,216.960632 
	C632.947388,216.340134 641.261658,213.481506 646.339844,205.236191 
	C651.982788,196.073776 652.385803,186.327850 650.666748,176.066223 
	C648.956604,165.858322 643.854431,158.700424 633.908569,155.215820 
	C624.025818,151.753296 613.788635,151.523285 602.498474,151.659958 
M829.130249,203.493668 
	C830.161194,200.541504 831.929565,197.629456 832.092712,194.630081 
	C832.722961,183.040421 833.069580,171.422592 833.053101,159.815918 
	C833.044922,154.046143 830.480957,151.911942 824.526367,151.727951 
	C818.701721,151.547989 812.864319,151.611786 807.036560,151.746460 
	C799.942444,151.910385 797.636902,154.299637 797.545654,161.576309 
	C797.453735,168.903961 797.485657,176.234421 797.569214,183.562454 
	C797.608093,186.972198 796.852600,189.508301 792.775635,189.615875 
	C788.649902,189.724731 787.228333,187.559250 787.274475,183.704315 
	C787.362244,176.375977 787.334900,169.044952 787.251831,161.716202 
	C787.164124,153.968994 784.851868,151.733353 776.995056,151.657990 
	C771.830994,151.608459 766.665466,151.569504 761.502075,151.640076 
	C754.284973,151.738678 751.797119,154.059433 751.749695,161.199127 
	C751.644409,177.023392 751.639954,192.849411 751.755432,208.673538 
	C751.806274,215.637512 754.248047,218.166931 761.089417,218.091293 
	C776.030701,217.926147 791.011841,218.057297 805.892761,216.944595 
	C815.032776,216.261139 823.714722,212.967392 829.130249,203.493668 
M372.502563,151.626984 
	C368.003571,151.657272 363.498077,151.545456 359.007111,151.751312 
	C352.353577,152.056305 349.221283,154.904724 349.188019,160.826981 
	C349.098083,176.823242 349.083282,192.820862 349.193054,208.816879 
	C349.237915,215.348206 351.756439,217.935303 358.174164,218.140244 
	C364.499695,218.342270 370.840057,218.316376 377.167664,218.151428 
	C383.398376,217.988998 385.759155,215.525818 385.983490,209.278076 
	C386.100342,206.023804 386.004059,202.761871 386.004059,199.204010 
	C394.721008,199.204010 402.763489,199.827118 410.648682,198.982285 
	C415.801025,198.430252 421.531097,196.825363 425.580322,193.793060 
	C433.487946,187.871338 432.350342,178.547714 431.607330,169.967407 
	C431.048645,163.515503 428.933899,157.357773 422.343781,154.674225 
	C418.317657,153.034714 413.815948,151.926880 409.488464,151.785553 
	C397.503937,151.394226 385.498810,151.634857 372.502563,151.626984 
M463.572815,151.619812 
	C462.240143,151.626205 460.907257,151.620956 459.574799,151.640854 
	C450.502502,151.776260 448.096313,154.149033 448.077881,163.173798 
	C448.046936,178.332535 448.018097,193.491669 448.101898,208.650024 
	C448.139404,215.434174 450.668701,218.073059 457.392303,218.123352 
	C473.882751,218.246704 490.377777,218.342407 506.862122,218.010468 
	C509.107422,217.965271 512.623413,215.840210 513.247925,213.926559 
	C514.589050,209.816650 514.746460,205.221039 514.811218,200.815796 
	C514.927673,192.895645 511.562775,189.644119 503.658356,189.551239 
	C497.530396,189.479233 491.400909,189.536835 485.207153,189.536835 
	C485.207153,186.214645 485.207153,183.465622 485.207153,180.273117 
	C491.966614,180.273117 498.432190,180.192047 504.894318,180.305420 
	C508.421295,180.367264 511.621979,179.661957 511.716064,175.599686 
	C511.819336,171.139236 508.396729,170.547607 504.725739,170.601166 
	C498.266876,170.695404 491.805695,170.627518 485.163208,170.627518 
	C485.163208,167.303894 485.163208,164.553680 485.163208,161.278076 
	C492.863647,161.278076 500.324371,161.205322 507.782654,161.309998 
	C511.301605,161.359360 514.683716,160.603043 514.670532,156.655472 
	C514.656860,152.563766 511.317657,151.588226 507.530731,151.612778 
	C493.205658,151.705627 478.879517,151.630325 463.572815,151.619812 
M181.562073,170.605591 
	C178.285660,170.605591 175.009262,170.605591 171.558975,170.605591 
	C171.558975,167.241638 171.558975,164.522354 171.558975,161.314804 
	C179.664856,161.314804 187.449936,161.291183 195.234756,161.326050 
	C198.496506,161.340652 201.436905,159.958710 200.900650,156.709106 
	C200.581329,154.774002 197.423096,151.901550 195.488083,151.858932 
	C178.352707,151.481415 161.203796,151.506912 144.062561,151.716370 
	C137.634903,151.794922 134.722290,154.796692 134.677673,160.767502 
	C134.557053,176.910751 134.529480,193.055954 134.644638,209.199097 
	C134.688889,215.403320 137.337189,218.091385 143.511047,218.139038 
	C160.153992,218.267517 176.802109,218.331848 193.438477,217.972504 
	C195.648987,217.924774 198.984741,215.713379 199.725067,213.729813 
	C201.056946,210.161377 201.109192,206.011185 201.175598,202.095215 
	C201.339172,192.448807 198.380997,189.553268 188.883026,189.535721 
	C183.120926,189.525070 177.358810,189.533768 171.632553,189.533768 
	C171.632553,186.089859 171.632553,183.372269 171.632553,180.272156 
	C178.822968,180.272156 185.619507,180.271606 192.416046,180.272385 
	C195.672195,180.272751 198.081711,178.995087 198.093369,175.466110 
	C198.104813,171.998672 195.864822,170.541351 192.523438,170.575119 
	C189.194687,170.608765 185.865463,170.598007 181.562073,170.605591 
M670.411743,157.369522 
	C670.248596,175.170120 669.946411,192.971237 670.012207,210.770981 
	C670.030457,215.722137 673.594360,218.083374 678.313843,218.111633 
	C695.143860,218.212448 711.977600,218.300522 728.802124,217.983017 
	C730.894958,217.943527 734.096497,215.855637 734.762817,213.993561 
	C736.053589,210.386536 736.239380,206.268753 736.288147,202.355225 
	C736.413757,192.279327 733.615417,189.571136 723.678894,189.541046 
	C718.076294,189.524094 712.473572,189.537994 706.801514,189.537994 
	C706.801514,186.138367 706.801514,183.404602 706.801514,180.237289 
	C713.940552,180.237289 720.741821,180.347382 727.537354,180.198410 
	C732.036438,180.099777 734.768127,176.653152 732.679016,173.544907 
	C731.634888,171.991486 728.967529,170.841370 726.972107,170.740463 
	C720.234558,170.399841 713.469116,170.610703 706.844971,170.610703 
	C706.844971,167.042786 706.844971,164.307678 706.844971,161.283295 
	C715.080200,161.283295 722.895447,161.297531 730.710571,161.276154 
	C733.766479,161.267792 736.586670,159.774734 735.966003,156.778061 
	C735.554077,154.789658 732.520386,151.931091 730.606140,151.888260 
	C713.617004,151.508209 696.613220,151.520660 679.620056,151.800140 
	C676.269104,151.855240 672.067932,151.976501 670.411743,157.369522 
M252.639725,157.378006 
	C251.764481,153.159241 248.386765,151.936050 244.889313,151.763229 
	C238.246292,151.434952 231.570023,151.467987 224.919525,151.697845 
	C219.275894,151.892883 216.521271,154.471451 216.454559,159.999496 
	C216.255661,176.477798 216.243118,192.960754 216.397476,209.439636 
	C216.452164,215.278122 219.226959,218.049210 225.041046,218.118042 
	C240.187683,218.297379 255.338501,218.272079 270.486053,218.142548 
	C275.352722,218.100937 277.975342,215.162048 278.099396,210.173782 
	C278.207001,205.848099 278.198273,201.515228 278.084778,197.189636 
	C277.988037,193.502502 276.597137,190.747391 272.379578,190.441467 
	C266.141571,189.988953 259.905426,189.510727 252.993317,188.992874 
	C252.993317,178.729630 252.993317,168.453781 252.639725,157.378006 
M331.113312,202.442139 
	C331.103302,188.626389 331.148590,174.810287 331.057037,160.995071 
	C331.018341,155.153397 328.085052,151.894760 322.520996,151.713974 
	C316.036591,151.503281 309.532715,151.501129 303.049927,151.745407 
	C296.835846,151.979553 294.328064,154.568405 294.284607,160.767914 
	C294.171448,176.913422 294.148590,193.060944 294.279144,209.206116 
	C294.328888,215.359497 297.001587,217.900299 303.156342,218.142014 
	C307.477966,218.311707 311.810883,218.209808 316.138702,218.203506 
	C330.250153,218.182938 331.117706,217.321716 331.113312,202.442139 
z"/>
<path fill="#0F1424" opacity="1.000000" stroke="none" 
	d="
M58.013680,27.216824 
	C49.337967,43.389122 59.023499,60.187908 77.022346,60.852360 
	C87.142242,61.225952 94.693840,67.664978 96.552979,77.588921 
	C96.919815,79.547073 97.042824,81.551804 97.258736,83.537178 
	C98.499245,94.943909 107.114563,102.809654 118.701180,103.107025 
	C128.600327,103.361092 136.614807,109.570213 138.820953,118.694618 
	C141.168427,128.403473 136.970062,137.523865 128.015747,142.167389 
	C115.341507,148.739990 100.153229,139.956039 98.967201,125.075027 
	C98.259094,116.190491 95.385422,108.917152 87.173882,104.456398 
	C79.360367,100.211868 69.683891,100.889908 62.853119,106.714424 
	C55.773499,112.751122 52.951847,120.528343 55.574543,129.596191 
	C58.153728,138.513611 64.141769,144.052124 73.537102,145.489014 
	C74.520599,145.639420 75.525932,145.659119 76.522652,145.709335 
	C88.610458,146.318466 96.428879,153.687714 96.966072,165.883408 
	C97.420074,176.190506 97.375130,186.543869 96.999863,196.856705 
	C96.583435,208.300858 88.093567,216.395325 76.579971,216.564392 
	C62.423740,216.772278 48.260769,216.771347 34.103844,216.600754 
	C23.162632,216.468903 14.348813,208.481628 14.177299,197.545639 
	C13.782927,172.399887 13.814799,147.241013 14.138920,122.093452 
	C14.275578,111.490517 23.254578,103.572205 34.262676,103.108047 
	C47.166912,102.563934 56.531086,93.430923 56.395695,81.521393 
	C56.254448,69.096535 46.792759,59.564499 34.184780,59.145344 
	C22.895411,58.770031 14.554628,50.761433 14.039142,39.802025 
	C13.527287,28.919806 21.028612,19.415726 32.303177,18.573137 
	C43.478455,17.737968 54.764900,18.390438 66.327660,18.390438 
	C63.377930,21.483942 60.796291,24.191410 58.013680,27.216824 
z"/>
<path fill="#0F1424" opacity="1.000000" stroke="none" 
	d="
M117.982643,59.159920 
	C108.096313,58.318600 100.119896,51.594883 99.319710,42.320599 
	C98.493652,32.746571 96.146095,24.421179 87.683868,18.298578 
	C89.935219,18.298578 92.186562,18.299732 94.437912,18.298399 
	C116.240433,18.285505 138.042984,18.244133 159.845459,18.269533 
	C172.903137,18.284744 181.637131,26.510578 181.911255,39.576420 
	C182.204422,53.550774 182.161560,67.538528 181.940552,81.515297 
	C181.765579,92.580841 173.099945,101.403107 162.545654,101.836502 
	C151.565430,102.287392 141.995880,94.334869 141.480789,82.903320 
	C140.886017,69.703125 132.491287,59.395462 117.982643,59.159920 
z"/>
<path fill="#0E1323" opacity="1.000000" stroke="none" 
	d="
M602.997986,151.659607 
	C613.788635,151.523285 624.025818,151.753296 633.908569,155.215820 
	C643.854431,158.700424 648.956604,165.858322 650.666748,176.066223 
	C652.385803,186.327850 651.982788,196.073776 646.339844,205.236191 
	C641.261658,213.481506 632.947388,216.340134 624.400635,216.960632 
	C609.032532,218.076340 593.566650,217.959793 578.139343,218.089890 
	C571.478821,218.146057 568.951538,215.326843 568.926819,208.544296 
	C568.870544,193.069702 568.899353,177.594574 568.952576,162.119888 
	C568.977844,154.765060 571.676514,151.857697 579.036194,151.678482 
	C586.852417,151.488159 594.677368,151.651215 602.997986,151.659607 
M613.280579,161.497894 
	C608.609253,159.597473 605.956360,160.394028 605.818542,164.194809 
	C605.547241,171.680756 605.502258,179.199051 605.968567,186.666214 
	C606.056274,188.071732 609.027588,190.401138 610.542542,190.305786 
	C612.084167,190.208710 614.474365,187.795425 614.725891,186.129593 
	C615.340637,182.056976 615.064636,177.825333 614.903076,173.667160 
	C614.751160,169.757004 614.286621,165.858963 613.280579,161.497894 
z"/>
<path fill="#0D1222" opacity="1.000000" stroke="none" 
	d="
M828.973389,203.831055 
	C823.714722,212.967392 815.032776,216.261139 805.892761,216.944595 
	C791.011841,218.057297 776.030701,217.926147 761.089417,218.091293 
	C754.248047,218.166931 751.806274,215.637512 751.755432,208.673538 
	C751.639954,192.849411 751.644409,177.023392 751.749695,161.199127 
	C751.797119,154.059433 754.284973,151.738678 761.502075,151.640076 
	C766.665466,151.569504 771.830994,151.608459 776.995056,151.657990 
	C784.851868,151.733353 787.164124,153.968994 787.251831,161.716202 
	C787.334900,169.044952 787.362244,176.375977 787.274475,183.704315 
	C787.228333,187.559250 788.649902,189.724731 792.775635,189.615875 
	C796.852600,189.508301 797.608093,186.972198 797.569214,183.562454 
	C797.485657,176.234421 797.453735,168.903961 797.545654,161.576309 
	C797.636902,154.299637 799.942444,151.910385 807.036560,151.746460 
	C812.864319,151.611786 818.701721,151.547989 824.526367,151.727951 
	C830.480957,151.911942 833.044922,154.046143 833.053101,159.815918 
	C833.069580,171.422592 832.722961,183.040421 832.092712,194.630081 
	C831.929565,197.629456 830.161194,200.541504 828.973389,203.831055 
z"/>
<path fill="#0E1323" opacity="1.000000" stroke="none" 
	d="
M373.002197,151.626343 
	C385.498810,151.634857 397.503937,151.394226 409.488464,151.785553 
	C413.815948,151.926880 418.317657,153.034714 422.343781,154.674225 
	C428.933899,157.357773 431.048645,163.515503 431.607330,169.967407 
	C432.350342,178.547714 433.487946,187.871338 425.580322,193.793060 
	C421.531097,196.825363 415.801025,198.430252 410.648682,198.982285 
	C402.763489,199.827118 394.721008,199.204010 386.004059,199.204010 
	C386.004059,202.761871 386.100342,206.023804 385.983490,209.278076 
	C385.759155,215.525818 383.398376,217.988998 377.167664,218.151428 
	C370.840057,218.316376 364.499695,218.342270 358.174164,218.140244 
	C351.756439,217.935303 349.237915,215.348206 349.193054,208.816879 
	C349.083282,192.820862 349.098083,176.823242 349.188019,160.826981 
	C349.221283,154.904724 352.353577,152.056305 359.007111,151.751312 
	C363.498077,151.545456 368.003571,151.657272 373.002197,151.626343 
M393.675110,161.087006 
	C389.822083,159.290634 386.814667,160.519363 386.248993,164.532455 
	C385.607361,169.084473 385.575897,173.887070 386.363861,178.390961 
	C386.658508,180.075180 389.927124,182.094910 391.997009,182.289581 
	C393.225189,182.405075 395.689789,179.398544 395.966736,177.551132 
	C396.574677,173.495911 396.275055,169.278519 396.062988,165.141830 
	C395.996277,163.841187 395.027496,162.586761 393.675110,161.087006 
z"/>
<path fill="#0E1323" opacity="1.000000" stroke="none" 
	d="
M464.063293,151.618881 
	C478.879517,151.630325 493.205658,151.705627 507.530731,151.612778 
	C511.317657,151.588226 514.656860,152.563766 514.670532,156.655472 
	C514.683716,160.603043 511.301605,161.359360 507.782654,161.309998 
	C500.324371,161.205322 492.863647,161.278076 485.163208,161.278076 
	C485.163208,164.553680 485.163208,167.303894 485.163208,170.627518 
	C491.805695,170.627518 498.266876,170.695404 504.725739,170.601166 
	C508.396729,170.547607 511.819336,171.139236 511.716064,175.599686 
	C511.621979,179.661957 508.421295,180.367264 504.894318,180.305420 
	C498.432190,180.192047 491.966614,180.273117 485.207153,180.273117 
	C485.207153,183.465622 485.207153,186.214645 485.207153,189.536835 
	C491.400909,189.536835 497.530396,189.479233 503.658356,189.551239 
	C511.562775,189.644119 514.927673,192.895645 514.811218,200.815796 
	C514.746460,205.221039 514.589050,209.816650 513.247925,213.926559 
	C512.623413,215.840210 509.107422,217.965271 506.862122,218.010468 
	C490.377777,218.342407 473.882751,218.246704 457.392303,218.123352 
	C450.668701,218.073059 448.139404,215.434174 448.101898,208.650024 
	C448.018097,193.491669 448.046936,178.332535 448.077881,163.173798 
	C448.096313,154.149033 450.502502,151.776260 459.574799,151.640854 
	C460.907257,151.620956 462.240143,151.626205 464.063293,151.618881 
z"/>
<path fill="#0D1222" opacity="1.000000" stroke="none" 
	d="
M182.049255,170.606155 
	C185.865463,170.598007 189.194687,170.608765 192.523438,170.575119 
	C195.864822,170.541351 198.104813,171.998672 198.093369,175.466110 
	C198.081711,178.995087 195.672195,180.272751 192.416046,180.272385 
	C185.619507,180.271606 178.822968,180.272156 171.632553,180.272156 
	C171.632553,183.372269 171.632553,186.089859 171.632553,189.533768 
	C177.358810,189.533768 183.120926,189.525070 188.883026,189.535721 
	C198.380997,189.553268 201.339172,192.448807 201.175598,202.095215 
	C201.109192,206.011185 201.056946,210.161377 199.725067,213.729813 
	C198.984741,215.713379 195.648987,217.924774 193.438477,217.972504 
	C176.802109,218.331848 160.153992,218.267517 143.511047,218.139038 
	C137.337189,218.091385 134.688889,215.403320 134.644638,209.199097 
	C134.529480,193.055954 134.557053,176.910751 134.677673,160.767502 
	C134.722290,154.796692 137.634903,151.794922 144.062561,151.716370 
	C161.203796,151.506912 178.352707,151.481415 195.488083,151.858932 
	C197.423096,151.901550 200.581329,154.774002 200.900650,156.709106 
	C201.436905,159.958710 198.496506,161.340652 195.234756,161.326050 
	C187.449936,161.291183 179.664856,161.314804 171.558975,161.314804 
	C171.558975,164.522354 171.558975,167.241638 171.558975,170.605591 
	C175.009262,170.605591 178.285660,170.605591 182.049255,170.606155 
z"/>
<path fill="#0D1222" opacity="1.000000" stroke="none" 
	d="
M670.590759,156.978500 
	C672.067932,151.976501 676.269104,151.855240 679.620056,151.800140 
	C696.613220,151.520660 713.617004,151.508209 730.606140,151.888260 
	C732.520386,151.931091 735.554077,154.789658 735.966003,156.778061 
	C736.586670,159.774734 733.766479,161.267792 730.710571,161.276154 
	C722.895447,161.297531 715.080200,161.283295 706.844971,161.283295 
	C706.844971,164.307678 706.844971,167.042786 706.844971,170.610703 
	C713.469116,170.610703 720.234558,170.399841 726.972107,170.740463 
	C728.967529,170.841370 731.634888,171.991486 732.679016,173.544907 
	C734.768127,176.653152 732.036438,180.099777 727.537354,180.198410 
	C720.741821,180.347382 713.940552,180.237289 706.801514,180.237289 
	C706.801514,183.404602 706.801514,186.138367 706.801514,189.537994 
	C712.473572,189.537994 718.076294,189.524094 723.678894,189.541046 
	C733.615417,189.571136 736.413757,192.279327 736.288147,202.355225 
	C736.239380,206.268753 736.053589,210.386536 734.762817,213.993561 
	C734.096497,215.855637 730.894958,217.943527 728.802124,217.983017 
	C711.977600,218.300522 695.143860,218.212448 678.313843,218.111633 
	C673.594360,218.083374 670.030457,215.722137 670.012207,210.770981 
	C669.946411,192.971237 670.248596,175.170120 670.590759,156.978500 
z"/>
<path fill="#0F1423" opacity="1.000000" stroke="none" 
	d="
M252.816528,157.777969 
	C252.993317,168.453781 252.993317,178.729630 252.993317,188.992874 
	C259.905426,189.510727 266.141571,189.988953 272.379578,190.441467 
	C276.597137,190.747391 277.988037,193.502502 278.084778,197.189636 
	C278.198273,201.515228 278.207001,205.848099 278.099396,210.173782 
	C277.975342,215.162048 275.352722,218.100937 270.486053,218.142548 
	C255.338501,218.272079 240.187683,218.297379 225.041046,218.118042 
	C219.226959,218.049210 216.452164,215.278122 216.397476,209.439636 
	C216.243118,192.960754 216.255661,176.477798 216.454559,159.999496 
	C216.521271,154.471451 219.275894,151.892883 224.919525,151.697845 
	C231.570023,151.467987 238.246292,151.434952 244.889313,151.763229 
	C248.386765,151.936050 251.764481,153.159241 252.816528,157.777969 
z"/>
<path fill="#0F1323" opacity="1.000000" stroke="none" 
	d="
M331.113464,202.930893 
	C331.117706,217.321716 330.250153,218.182938 316.138702,218.203506 
	C311.810883,218.209808 307.477966,218.311707 303.156342,218.142014 
	C297.001587,217.900299 294.328888,215.359497 294.279144,209.206116 
	C294.148590,193.060944 294.171448,176.913422 294.284607,160.767914 
	C294.328064,154.568405 296.835846,151.979553 303.049927,151.745407 
	C309.532715,151.501129 316.036591,151.503281 322.520996,151.713974 
	C328.085052,151.894760 331.018341,155.153397 331.057037,160.995071 
	C331.148590,174.810287 331.103302,188.626389 331.113464,202.930893 
z"/>
<path fill="#F4F4F5" opacity="1.000000" stroke="none" 
	d="
M613.620117,161.726746 
	C614.286621,165.858963 614.751160,169.757004 614.903076,173.667160 
	C615.064636,177.825333 615.340637,182.056976 614.725891,186.129593 
	C614.474365,187.795425 612.084167,190.208710 610.542542,190.305786 
	C609.027588,190.401138 606.056274,188.071732 605.968567,186.666214 
	C605.502258,179.199051 605.547241,171.680756 605.818542,164.194809 
	C605.956360,160.394028 608.609253,159.597473 613.620117,161.726746 
z"/>
<path fill="#F5F5F6" opacity="1.000000" stroke="none" 
	d="
M394.073364,161.199097 
	C395.027496,162.586761 395.996277,163.841187 396.062988,165.141830 
	C396.275055,169.278519 396.574677,173.495911 395.966736,177.551132 
	C395.689789,179.398544 393.225189,182.405075 391.997009,182.289581 
	C389.927124,182.094910 386.658508,180.075180 386.363861,178.390961 
	C385.575897,173.887070 385.607361,169.084473 386.248993,164.532455 
	C386.814667,160.519363 389.822083,159.290634 394.073364,161.199097 
z"/>
</svg>